<svg xmlns="http://www.w3.org/2000/svg" width="21.208" height="32" viewBox="0 0 21.208 32">
  <g id="Male_sit_and_pray" data-name="Male sit and pray" transform="translate(-8.182 0.01)">
    <path id="Path_144043" data-name="Path 144043" d="M26.4,24.385l-4.606-1.773a2,2,0,0,1-1.266-1.606,14.565,14.565,0,0,0,6-3.039c2.246-1.68,1.113-5.179-.107-4.566-3.233,1.613-1.76,1.166-6.619,1.86-.193-1.573-.213-3.113-1.893-4.459l.347-1.273.447.067A2,2,0,0,0,20.831,8c.26-1.286.593-1.433.767-2.306A5.865,5.865,0,0,0,21.211,2.4l-.32-.533a3.829,3.829,0,0,0-7.039,2.713,5.572,5.572,0,0,1,.207,2,1.333,1.333,0,0,0,.547,1.086c-.613,2.3-.22,1.526-1.106,1.9a2.706,2.706,0,0,0-1.493,1.6,10,10,0,0,0-.613,3.459c0,10.844-.247,10.858.727,12.084-3.746.453-5.246,5.286-2.606,5.286h17.21a2.666,2.666,0,0,0,2.666-2.666v-.587A4.666,4.666,0,0,0,26.4,24.385ZM25.73,16.9c-.14.113,0,.287-.78-1.273l1.466-.733A1.873,1.873,0,0,1,25.73,16.9Zm-5.6-10.991c-.767,1.526-.44,2.439-1.3,2.36a5.885,5.885,0,0,1-3.439-1.68V6l4.872-2.166a3.673,3.673,0,0,1-.133,2.08Zm-.387-3.373c.04.067.36-.113-4.526,2.06a3.333,3.333,0,0,1-.107-.773,2.5,2.5,0,0,1,4.632-1.286ZM16.972,9.161l-.247.94-1.093-.493c-.187-.087-.2.173.127-1.06a7.458,7.458,0,0,0,1.213.613Zm-7.458,21.5a3.179,3.179,0,0,1,3.213-2.666v2.666Zm18.543-1.333a1.333,1.333,0,0,1-1.333,1.333H14.06V27.991h6.665a.667.667,0,0,0,0-1.333h-6a2,2,0,0,1-2-2c0-8.432-.427-13.131,1.286-13.85.613-.26.853-.08,2.366.6,3.106,1.4,1.286,5.252,2.846,5.252a42.362,42.362,0,0,0,4.452-.607l.853,1.713a11.684,11.684,0,0,1-6.825,2.226,2,2,0,0,1-2-1.713l-.313-2.38a.673.673,0,0,0-1.333.187l.34,2.38a3.333,3.333,0,0,0,3.306,2.859,12.7,12.7,0,0,0,1.506-.1,3.333,3.333,0,0,0,2.1,2.626l4.606,1.773a3.333,3.333,0,0,1,2.14,3.113Z" transform="translate(0 0)" fill="#d1d1d1"/>
  </g>
</svg>
