<svg xmlns="http://www.w3.org/2000/svg" width="328.26" height="7.081" viewBox="0 0 328.26 7.081">
  <g id="Group_14989" data-name="Group 14989" transform="translate(-16 -297)">
    <path id="Path_144020" data-name="Path 144020" d="M57.712,3.54,60.318,1.5l2.6,2.043-2.6,2.043Zm-.765,0,3.371,2.643L63.687,3.54,60.318.9Z" transform="translate(126 297)" fill="#dd9b59"/>
    <path id="Path_144021" data-name="Path 144021" d="M63.908,3.54l2.6-2.043,2.6,2.043-2.6,2.043Zm-.765,0,3.37,2.643,3.37-2.643L66.513.9Z" transform="translate(126 297)" fill="#dd9b59"/>
    <path id="Path_144022" data-name="Path 144022" d="M38.142,3.54,40.747,1.5l2.6,2.043-2.6,2.043Zm-.765,0,3.37,2.643,3.37-2.643L40.747.9Z" transform="translate(126 297)" fill="#dd9b59"/>
    <path id="Path_144023" data-name="Path 144023" d="M44.339,3.54l2.6-2.043,2.6,2.043-2.6,2.043Zm-.765,0,3.37,2.643L50.313,3.54,46.944.9Z" transform="translate(126 297)" fill="#dd9b59"/>
    <path id="Path_144024" data-name="Path 144024" d="M53.649,7.081a3.54,3.54,0,1,1,3.541-3.54,3.545,3.545,0,0,1-3.541,3.54m0-6.845a3.3,3.3,0,1,0,3.305,3.3,3.309,3.309,0,0,0-3.305-3.3" transform="translate(126 297)" fill="#dd9b59"/>
    <path id="Path_144025" data-name="Path 144025" d="M53.649,6.533a2.993,2.993,0,1,1,2.993-2.992,3,3,0,0,1-2.993,2.992m0-5.5a2.506,2.506,0,1,0,2.507,2.507,2.51,2.51,0,0,0-2.507-2.507" transform="translate(126 297)" fill="#dd9b59"/>
    <path id="Path_144026" data-name="Path 144026" d="M55.451,3.54a1.8,1.8,0,1,1-1.8-1.8,1.8,1.8,0,0,1,1.8,1.8" transform="translate(126 297)" fill="#dd9b59"/>
    <path id="Path_144030" data-name="Path 144030" d="M-110,0H34.462V.472H-110Z" transform="translate(126 300.276)" fill="#dd9b59"/>
    <path id="Path_144027" data-name="Path 144027" d="M33.623,3.512s1.46.99,1.193,2.059a.947.947,0,0,0,.177-1.265c-.452-.567.355.631,1.278-.794-.923-1.425-1.646-.17-1.278-.8a.94.94,0,0,0-.177-1.264,2.549,2.549,0,0,1-1.193,2.059" transform="translate(126 297)" fill="#dd9b59"/>
    <path id="Path_144029" data-name="Path 144029" d="M0,0H145.462V.472H0Z" transform="translate(198.798 300.276)" fill="#dd9b59"/>
    <path id="Path_144028" data-name="Path 144028" d="M73.637,3.512s-1.46-.99-1.193-2.059a.946.946,0,0,0-.176,1.265c.451.567-.356-.632-1.279.794.923,1.425,1.646.17,1.279.8a.939.939,0,0,0,.176,1.264,2.549,2.549,0,0,1,1.193-2.059" transform="translate(126 297)" fill="#dd9b59"/>
  </g>
</svg>
