<svg xmlns="http://www.w3.org/2000/svg" width="32.112" height="32" viewBox="0 0 32.112 32">
  <g id="moon" transform="translate(0 -0.546)">
    <g id="Group_15065" data-name="Group 15065" transform="translate(0 0.546)">
      <path id="Path_144042" data-name="Path 144042" d="M31.353,18.758a1.129,1.129,0,0,0-.944.205A12.04,12.04,0,0,1,26.757,21.1a11.437,11.437,0,0,1-4.145.739A12.05,12.05,0,0,1,10.547,9.77,12.647,12.647,0,0,1,11.2,5.79a11.019,11.019,0,0,1,1.97-3.529A1.048,1.048,0,0,0,13.009.783a1.129,1.129,0,0,0-.944-.205,16.56,16.56,0,0,0-8.7,5.827A16.245,16.245,0,1,0,32.051,20.071.973.973,0,0,0,31.353,18.758Zm-6.279,8.577A14.126,14.126,0,0,1,2.216,16.254,13.877,13.877,0,0,1,5.13,7.677a14.109,14.109,0,0,1,4.719-3.94,14.176,14.176,0,0,0-.575,1.4,13.656,13.656,0,0,0-.78,4.678A14.151,14.151,0,0,0,22.653,23.97a13.739,13.739,0,0,0,4.884-.862c.533-.205,1.067-.41,1.559-.657A14.931,14.931,0,0,1,25.074,27.335Z" transform="translate(0 -0.546)" fill="#d1d1d1"/>
    </g>
  </g>
</svg>
