<svg xmlns="http://www.w3.org/2000/svg" width="16.005" height="16.005" viewBox="0 0 16.005 16.005">
  <g id="Group_14985" data-name="Group 14985" transform="translate(-76 -227)">
    <path id="icons_functional_UI_S-Z_ic_Tick_confirmation" data-name="icons/functional_UI/S-Z/ic_Tick_confirmation" d="M8,0a8,8,0,1,0,8,8A8,8,0,0,0,8,0Z" transform="translate(76 227)" fill="#32c832"/>
    <path id="Path" d="M8.526,1.224,3.732,7.249h0a.746.746,0,0,1-1.17,0h0L.164,4.236h0a.756.756,0,0,1,.055-1l.3-.3a.746.746,0,0,1,1.017-.039h0L3,4.519,7.429.2h0a.751.751,0,0,1,1.1,1.02Z" transform="translate(79.923 231.401)" fill="#fff"/>
  </g>
</svg>
