<svg xmlns="http://www.w3.org/2000/svg" xmlns:xlink="http://www.w3.org/1999/xlink" width="32" height="32" viewBox="0 0 32 32">
  <defs>
    <clipPath id="clip-path">
      <path id="path3837" d="M0-682.665H32v32H0Z" transform="translate(0 682.665)"/>
    </clipPath>
  </defs>
  <g id="g3831" transform="translate(0 682.665)">
    <g id="g3833" transform="translate(0 -682.665)">
      <g id="g3835" clip-path="url(#clip-path)">
        <g id="g3841" transform="translate(18.332 11.015)">
          <path id="path3843" d="M-58.577-277.14a3.706,3.706,0,0,1-2.863-4.037c.156-1.663,1.157-1.911.482-5.389m9.007-4.2h2.629a1.066,1.066,0,0,1,1.063,1.062v9.833c0,2.242-.726,2.734-3.166,2.734h-3.983m-1.421-13.63h3.065" transform="translate(61.458 290.77)" fill="none" stroke="#d1d1d1" stroke-linecap="round" stroke-linejoin="round" stroke-width="1.16"/>
        </g>
        <g id="g3845" transform="translate(4.354 13.874)">
          <path id="path3847" d="M-73.561-.134a9.587,9.587,0,0,0-3.618.476" transform="translate(77.178 0.141)" fill="none" stroke="#d1d1d1" stroke-linecap="round" stroke-linejoin="round" stroke-width="1.16"/>
        </g>
        <g id="g3849" transform="translate(20.691 16.381)">
          <path id="path3851" d="M-89.076,0l.6,1.925a3.4,3.4,0,0,1,.053,2.3l-1.136,3.522c-.937,2.9-3.781,1.916-3.338-.018.037-.158.278-.577,0-.735-1.146-.648-.324-1.971.664-1.351.168.1.431-.092.551-.475l.517-1.629a1.551,1.551,0,0,0,.067-.978l-.268-.97" transform="translate(93.456)" fill="none" stroke="#d1d1d1" stroke-linecap="round" stroke-linejoin="round" stroke-width="1.16"/>
        </g>
        <g id="g3853" transform="translate(7.971 8.713)">
          <path id="path3855" d="M-45.866-176.261c.671-4.06,3.4-2.465,3.77-8.286-3.3-1.5-5.988,1.682-6.025,4.627A3.774,3.774,0,0,0-45.866-176.261Z" transform="translate(48.122 184.93)" fill="none" stroke="#d1d1d1" stroke-linecap="round" stroke-linejoin="round" stroke-width="1.16"/>
        </g>
        <g id="g3857" transform="translate(10.227 9.096)">
          <path id="path3859" d="M0-168.473l2.254,1.025a5.4,5.4,0,0,0,5.427-1.287,2.921,2.921,0,0,0,.941-2.072,5.388,5.388,0,0,0-2.6-4.926L3.77-176.758" transform="translate(0 176.758)" fill="none" stroke="#d1d1d1" stroke-linecap="round" stroke-linejoin="round" stroke-width="1.16"/>
        </g>
        <g id="g3861" transform="translate(14.539 8.262)">
          <path id="path3863" d="M0-21.962l.345-.756a.553.553,0,0,1,.732-.274l.5.227a1.558,1.558,0,0,1,.675,1.9" transform="translate(0 23.042)" fill="none" stroke="#d1d1d1" stroke-linecap="round" stroke-linejoin="round" stroke-width="1.16"/>
        </g>
        <g id="g3865" transform="translate(0.469 6.291)">
          <path id="path3867" d="M-186.854-291.112h8.692m13.181.145v7.259a1.462,1.462,0,0,1-1.458,1.457h-28.146a1.461,1.461,0,0,1-1.458-1.457v-19.78a1.947,1.947,0,0,1,1.943-1.941,1.947,1.947,0,0,1,1.942,1.941v11.751a.627.627,0,0,0,.625.625h2.891" transform="translate(196.044 305.429)" fill="none" stroke="#d1d1d1" stroke-linecap="round" stroke-linejoin="round" stroke-width="1.16"/>
        </g>
        <g id="g3869" transform="translate(18.508 10.228)">
          <path id="path3871" d="M-.493-54.9c-.345-2.566,3.081-3.981,5.161-1.114L6.087-54a2.174,2.174,0,0,1-.521,3.021l-1.23.866a1.977,1.977,0,0,1-2.682-.746l-1.832-2.55" transform="translate(0.517 57.601)" fill="none" stroke="#d1d1d1" stroke-linecap="round" stroke-linejoin="round" stroke-width="1.16"/>
        </g>
        <g id="g3873" transform="translate(19.401 4.741)">
          <path id="path3875" d="M0,0H2.213L.073,2.129h2.25" fill="none" stroke="#d1d1d1" stroke-linecap="round" stroke-linejoin="round" stroke-width="1"/>
        </g>
        <g id="g3877" transform="translate(24.041 2.531)">
          <path id="path3879" d="M0,0H2.213L.073,2.127h2.25" fill="none" stroke="#d1d1d1" stroke-linecap="round" stroke-linejoin="round" stroke-width="1"/>
        </g>
      </g>
    </g>
    <g id="g3881" transform="translate(0 -682.665)">
      <g id="g3883" clip-path="url(#clip-path)">
        <g id="g3889" transform="translate(-12.738 0.469)">
          <path id="path3891" d="M-112.585-180.747l-2.494,1.99m-3.043-2.854,4.195-6.016c3.5-5.014,9.357.488,4.679,4.22l-1.718,1.371" transform="translate(118.122 189.636)" fill="none" stroke="#d1d1d1" stroke-linecap="round" stroke-linejoin="round" stroke-width="1.16"/>
        </g>
      </g>
    </g>
  </g>
</svg>
