<svg id="Group_15075" data-name="Group 15075" xmlns="http://www.w3.org/2000/svg" xmlns:xlink="http://www.w3.org/1999/xlink" width="25.311" height="39.839" viewBox="0 0 25.311 39.839">
  <defs>
    <clipPath id="clip-path">
      <rect id="Rectangle_9747" data-name="Rectangle 9747" width="25.311" height="39.839" fill="none" stroke="#d1d1d1" stroke-width="1.5"/>
    </clipPath>
  </defs>
  <g id="Group_15075-2" data-name="Group 15075" clip-path="url(#clip-path)">
    <path id="Path_144045" data-name="Path 144045" d="M22.332,6.793a2.757,2.757,0,1,1-2.757-2.757,2.757,2.757,0,0,1,2.757,2.757" transform="translate(-11.673 -2.801)" fill="none" stroke="#d1d1d1" stroke-width="1.5"/>
    <path id="Path_144046" data-name="Path 144046" d="M41.706,2.757A2.757,2.757,0,1,1,38.948,0a2.758,2.758,0,0,1,2.757,2.757" transform="translate(-25.12)" fill="none" stroke="#d1d1d1" stroke-width="1.5"/>
    <path id="Path_144047" data-name="Path 144047" d="M58.658,11.771A2.757,2.757,0,1,1,55.9,9.014a2.758,2.758,0,0,1,2.757,2.757" transform="translate(-36.886 -6.257)" fill="none" stroke="#d1d1d1" stroke-width="1.5"/>
    <path id="Path_144048" data-name="Path 144048" d="M70.228,27.916a2.757,2.757,0,1,1-2.757-2.757,2.758,2.758,0,0,1,2.757,2.757" transform="translate(-44.917 -17.463)" fill="none" stroke="#d1d1d1" stroke-width="1.5"/>
    <path id="Path_144049" data-name="Path 144049" d="M67.672,47.828a2.757,2.757,0,1,1-2.757-2.757,2.758,2.758,0,0,1,2.757,2.757" transform="translate(-43.143 -31.283)" fill="none" stroke="#d1d1d1" stroke-width="1.5"/>
    <path id="Path_144050" data-name="Path 144050" d="M55.294,62.484a2.757,2.757,0,1,1-2.757-2.757,2.758,2.758,0,0,1,2.757,2.757" transform="translate(-34.551 -41.456)" fill="none" stroke="#d1d1d1" stroke-width="1.5"/>
    <path id="Path_144051" data-name="Path 144051" d="M43.455,77.822A2.757,2.757,0,1,1,40.7,75.065a2.758,2.758,0,0,1,2.757,2.757" transform="translate(-26.334 -52.102)" fill="none" stroke="#d1d1d1" stroke-width="1.5"/>
    <path id="Path_144052" data-name="Path 144052" d="M9.013,22.392a2.757,2.757,0,1,1-2.757-2.757,2.758,2.758,0,0,1,2.757,2.757" transform="translate(-2.428 -13.628)" fill="none" stroke="#d1d1d1" stroke-width="1.5"/>
    <path id="Path_144053" data-name="Path 144053" d="M5.515,42.842a2.757,2.757,0,1,1-2.757-2.757,2.758,2.758,0,0,1,2.757,2.757" transform="translate(0 -27.823)" fill="none" stroke="#d1d1d1" stroke-width="1.5"/>
    <path id="Path_144054" data-name="Path 144054" d="M10.9,63.291a2.757,2.757,0,1,1-2.757-2.757A2.758,2.758,0,0,1,10.9,63.291" transform="translate(-3.736 -42.016)" fill="none" stroke="#d1d1d1" stroke-width="1.5"/>
    <path id="Path_144055" data-name="Path 144055" d="M23.543,78.436a2.828,2.828,0,0,1-.429,1.477,2.787,2.787,0,0,1-2.329,1.28,2.826,2.826,0,0,1-2.757-2.757,2.757,2.757,0,0,1,5.515,0" transform="translate(-12.513 -52.528)" fill="none" stroke="#d1d1d1" stroke-width="1.5"/>
    <path id="Path_144056" data-name="Path 144056" d="M29.867,92.962,31.8,90.41l5.515,3.7L35,96.4l-.439.432Z" transform="translate(-20.731 -62.753)" fill="none" stroke="#d1d1d1" stroke-width="1.5"/>
    <path id="Path_144057" data-name="Path 144057" d="M49.779,107.295s4.4,2.963,2.264,6.5h3.951s2.8-2.222-4.774-7.244Z" transform="translate(-34.551 -73.958)" fill="none" stroke="#d1d1d1" stroke-width="1.5"/>
  </g>
</svg>
