<svg xmlns="http://www.w3.org/2000/svg" width="27.627" height="32" viewBox="0 0 27.627 32">
  <g id="line" transform="translate(-5 -1.985)">
    <path id="Path_144044" data-name="Path 144044" d="M29.719,19.518V15.78a2.972,2.972,0,0,0-2.827-2.788l-2.639-.27L30.2,6.785h0A2.182,2.182,0,1,0,27.11,3.7L22.874,7.941a4.362,4.362,0,1,0-8.121,0L10.516,3.7a2.227,2.227,0,0,0-3.086,0,2.185,2.185,0,0,0,0,3.086l5.943,5.937-2.639.27h0A2.972,2.972,0,0,0,7.908,15.78v3.738A3.641,3.641,0,0,0,5,23.079v6.543a.727.727,0,0,0,.727.727H7.181v2.181a.727.727,0,0,0,0,1.454h3.635a.727.727,0,0,0,0-1.454V30.35H26.811v2.181a.727.727,0,0,0,0,1.454h3.635a.727.727,0,0,0,0-1.454V30.35H31.9a.727.727,0,0,0,.727-.727V23.079A3.641,3.641,0,0,0,29.719,19.518ZM28.265,15.78v3.664H24.8A6.968,6.968,0,0,0,23.9,18.7c0-.159,0-4.4,0-4.556l2.843.291A1.538,1.538,0,0,1,28.265,15.78ZM18.813,3.45a2.908,2.908,0,1,1-2.908,2.908A2.908,2.908,0,0,1,18.813,3.45ZM9.487,4.727l6.463,6.47a.727.727,0,0,0,.913.094,3.669,3.669,0,0,1,3.9,0,.725.725,0,0,0,.913-.094l6.463-6.47a.728.728,0,1,1,1.03,1.029l-6.725,6.718a.727.727,0,0,0-.176.744,3.473,3.473,0,0,1,.181,1.138v3.582a10.294,10.294,0,0,0-7.27,0V14.355a3.528,3.528,0,0,1,.181-1.137.727.727,0,0,0-.176-.744L8.458,5.756a.728.728,0,1,1,1.03-1.03ZM9.362,15.78a1.538,1.538,0,0,1,1.521-1.341l2.845-.291c-.006.159,0,4.4,0,4.555a7,7,0,0,0-.894.742H9.362ZM8.635,20.9H13.15a.726.726,0,0,0,.553-.254,4.5,4.5,0,0,1,1.122-.917,7.886,7.886,0,0,1,3.989-1.009,6.987,6.987,0,0,1,5.111,1.927.726.726,0,0,0,.553.254h4.515a2.183,2.183,0,0,1,2.181,2.181H6.454A2.183,2.183,0,0,1,8.635,20.9Zm.727,11.632H8.635V30.35h.727Zm19.63,0h-.727V30.35h.727ZM31.173,28.9H6.454V24.533H31.173Z" fill="#d1d1d1"/>
  </g>
</svg>
