<svg xmlns="http://www.w3.org/2000/svg" width="24" height="24" viewBox="0 0 24 24">
  <g id="true" transform="translate(0 -14.597)">
    <path id="Path_141236" data-name="Path 141236" d="M12,0A12,12,0,1,0,24,12,12,12,0,0,0,12,0Zm0,22.875A10.875,10.875,0,1,1,22.875,12,10.875,10.875,0,0,1,12,22.875Z" transform="translate(0 14.597)" fill="#fff"/>
    <path id="Path_141237" data-name="Path 141237" d="M11.669.192,3.394,8.33,1.132,5.948a.662.662,0,0,0-.96.912L2.9,9.73a.662.662,0,0,0,.468.205h.011a.662.662,0,0,0,.464-.19l8.754-8.61A.663.663,0,0,0,11.664.19Z" transform="translate(6.211 20.596) rotate(7)" fill="#fff"/>
  </g>
</svg>
